PathFileType	4	(X/Y/Z)	1H_rest_fast_left.trc
DataRate	CameraRate	NumFrames	NumMarkers	Units	OrigDataRate	OrigDataStartFrame	OrigNumFrames
250.00	250.00	16	18	mm	250.00	3452	27614
Frame#	Time	c7	r_should	l_should	clavicle	r_upa	r_elb_l	r_elb_m	r_low	r_wri_l	r_wri_m	r_met	l_upa	l_elb_l	l_elb_m	l_low	l_wri_l	l_wri_m	l_met
	X1	Y1	Z1	X2	Y2	Z2	X3	Y3	Z3	X4	Y4	Z4	X5	Y5	Z5	X6	Y6	Z6	X7	Y7	Z7	X8	Y8	Z8	X9	Y9	Z9	X10	Y10	Z10	X11	Y11	Z11	X12	Y12	Z12	X13	Y13	Z13	X14	Y14	Z14	X15	Y15	Z15	X16	Y16	Z16	X17	Y17	Z17	X18	Y18	Z18
3452	13.80400	618.15710	1419.94971	249.22086	665.51221	1361.93359	408.19888	680.58173	1375.67993	89.86364	748.83606	1281.18311	246.60562	662.48859	1154.86621	480.69965	658.54395	1065.82471	502.77530	614.56360	1028.87402	431.81287	717.91754	891.65839	496.44464	747.09692	827.69812	470.81610	681.27094	804.26453	494.91315	785.67694	754.28278	503.07797	705.10303	1196.78015	6.33299	716.22052	1119.64673	-9.64566	662.38763	1063.94031	46.54116	800.08258	1125.25488	78.67451	823.66693	1162.66553	144.24112	833.90710	1095.03809	167.27287	901.43628	1190.57983	178.67126
3453	13.80800	618.16333	1419.94019	249.22672	665.52844	1361.93628	408.19122	680.58685	1375.66541	89.85624	748.84338	1281.18457	246.59778	662.52954	1154.89795	480.72589	658.57776	1065.85120	502.80655	614.59619	1028.90295	431.83170	717.91217	891.65857	496.43137	747.08643	827.68988	470.79303	681.27814	804.31403	494.96271	785.69006	754.30005	503.08240	705.09064	1196.75598	6.32794	716.20013	1119.60229	-9.64711	662.37695	1063.98132	46.61907	800.09125	1125.19080	78.68035	822.71198	1162.27368	145.88531	833.91742	1094.94043	167.26776	901.30835	1190.50903	179.26337
3454	13.81200	618.17090	1419.93567	249.23166	665.55127	1361.93994	408.19174	680.59595	1375.65735	89.84509	748.84656	1281.17297	246.59315	662.56128	1154.91992	480.73923	658.60309	1065.87476	502.82288	614.62225	1028.93262	431.83939	717.90778	891.64832	496.42123	747.07422	827.68652	470.78458	681.28552	804.34833	494.99274	785.69873	754.30835	503.07620	705.07574	1196.73535	6.32403	716.18829	1119.56738	-9.65180	662.37048	1064.01270	46.65858	800.10034	1125.12305	78.67951	822.50458	1162.10217	146.29036	833.93872	1094.84802	167.25803	901.31116	1190.38464	179.40913
3455	13.81600	618.18646	1419.94800	249.22266	665.57196	1361.94751	408.18234	680.60358	1375.66052	89.82365	748.84869	1281.17310	246.58510	662.57532	1154.92432	480.72830	658.60522	1065.88574	502.81738	614.63654	1028.95349	431.82565	717.90607	891.64471	496.41058	747.06494	827.68457	470.77399	681.28540	804.36029	494.97354	785.68829	754.30908	503.05356	705.05878	1196.71802	6.31663	716.17181	1119.54260	-9.66363	662.35608	1064.01758	46.63713	800.10974	1125.05750	78.67837	822.48029	1161.99866	146.39066	833.95972	1094.75989	167.25238	901.34869	1190.24854	179.44249
3456	13.82000	618.20319	1419.96240	249.21495	665.58783	1361.96191	408.17087	680.61267	1375.66089	89.79835	748.86151	1281.17310	246.57556	662.57196	1154.90686	480.69882	658.59412	1065.87634	502.78824	614.63049	1028.95959	431.79752	717.90515	891.64581	496.40073	747.06006	827.68298	470.75821	681.27417	804.34650	494.91318	785.67126	754.29492	503.01099	705.03857	1196.69812	6.30686	716.14905	1119.50806	-9.67430	662.34888	1063.97241	46.58220	800.11914	1124.99023	78.68240	822.93488	1162.04272	145.69060	833.99115	1094.67029	167.24371	901.50140	1190.08899	179.07733
3457	13.82400	618.21863	1419.96936	249.21313	665.60828	1361.96741	408.16196	680.61957	1375.65417	89.77874	748.87646	1281.16675	246.57852	662.55573	1154.87891	480.66806	658.58459	1065.85132	502.75482	614.61627	1028.94226	431.77222	717.90753	891.64014	496.38766	747.05957	827.67365	470.74002	681.26117	804.31268	494.84641	785.65442	754.26495	502.95776	705.01599	1196.67188	6.29980	716.12543	1119.46460	-9.67920	662.34760	1063.88977	46.52428	800.12634	1124.90869	78.69463	823.95343	1162.24707	144.06546	834.01227	1094.56116	167.23761	901.78845	1189.89819	178.24519
3458	13.82800	618.22638	1419.96570	249.20535	665.63257	1361.95886	408.15817	680.62677	1375.63647	89.76347	748.89050	1281.16626	246.57812	662.54791	1154.85657	480.64929	658.58423	1065.82898	502.73203	614.60272	1028.91333	431.75476	717.91962	891.63483	496.37790	747.06006	827.66846	470.72940	681.25153	804.26978	494.80121	785.64062	754.23260	502.91223	704.98962	1196.64282	6.29666	716.08929	1119.41187	-9.67328	662.33313	1063.80725	46.49505	800.13348	1124.81287	78.71099	824.23737	1162.21838	143.67355	834.01715	1094.43689	167.24429	901.90344	1189.74304	178.05159
3459	13.83200	618.22961	1419.95142	249.20674	665.65204	1361.95264	408.15695	680.63257	1375.61707	89.75632	748.90973	1281.16724	246.57190	662.56073	1154.84656	480.64499	658.59576	1065.81970	502.72690	614.59790	1028.90039	431.75861	717.93054	891.63721	496.37103	747.06891	827.66943	470.71362	681.24768	804.24689	494.79538	785.64130	754.22131	502.89618	704.95380	1196.61804	6.28663	716.04736	1119.35168	-9.66549	662.29901	1063.75098	46.52662	800.13971	1124.72644	78.72278	824.33673	1162.12085	143.59074	834.02393	1094.31152	167.25089	901.98053	1189.59985	178.02032
3460	13.83600	618.23749	1419.94946	249.20801	665.66473	1361.94800	408.15204	680.63623	1375.60205	89.74613	748.93164	1281.17346	246.55696	662.59308	1154.86182	480.65805	658.62122	1065.82642	502.73682	614.61029	1028.90625	431.78305	717.94446	891.64258	496.35745	747.07654	827.67236	470.69501	681.25598	804.26208	494.82391	785.65753	754.23407	502.89673	704.91626	1196.59778	6.27854	715.99890	1119.29272	-9.65614	662.26270	1063.73682	46.59893	800.14374	1124.63916	78.72323	824.38678	1161.99670	143.58629	834.03143	1094.18787	167.25427	902.05298	1189.46021	178.01622
3461	13.84000	618.25342	1419.95325	249.20526	665.67957	1361.94568	408.14294	680.64429	1375.59192	89.73373	748.95593	1281.18323	246.53967	662.64618	1154.89392	480.67764	658.66138	1065.84912	502.76108	614.63708	1028.92590	431.80725	717.95605	891.64655	496.33533	747.08655	827.67920	470.67249	681.28052	804.30200	494.86911	785.68872	754.26038	502.90649	704.87842	1196.58105	6.26852	715.95117	1119.23755	-9.64948	662.23859	1063.76001	46.68160	800.14520	1124.54297	78.73042	824.42627	1161.87280	143.59985	834.03979	1094.06445	167.25330	902.11926	1189.31323	178.02998
3462	13.84400	618.27002	1419.95483	249.20407	665.69696	1361.94446	408.14322	680.65686	1375.58655	89.72540	748.97162	1281.18359	246.52693	662.69122	1154.92664	480.69614	658.70001	1065.87830	502.78778	614.67212	1028.94507	431.82419	717.96393	891.64661	496.32114	747.09583	827.68219	470.65308	681.31000	804.34821	494.91833	785.72375	754.29083	502.91705	704.83789	1196.56616	6.25821	715.90808	1119.18030	-9.64408	662.22186	1063.79810	46.75814	800.14429	1124.44189	78.74008	824.46765	1161.74060	143.62183	834.05286	1093.93359	167.24690	902.17126	1189.15759	178.05302
3463	13.84800	618.28540	1419.96594	249.20760	665.71637	1361.94958	408.13544	680.67340	1375.58557	89.71919	748.98694	1281.18433	246.51199	662.71222	1154.94409	480.70370	658.72241	1065.89600	502.79562	614.68805	1028.96875	431.83200	717.96985	891.64246	496.31009	747.10358	827.68201	470.64313	681.33215	804.38165	494.93869	785.74915	754.30829	502.90842	704.79926	1196.55017	6.25367	715.86609	1119.12756	-9.64165	662.19293	1063.81995	46.80959	800.14111	1124.34290	78.75097	824.51044	1161.60645	143.63841	834.08453	1093.80249	167.23720	902.21881	1188.98938	178.07101
3464	13.85200	618.29810	1419.98108	249.20175	665.73212	1361.95874	408.12341	680.68903	1375.59167	89.70422	748.99603	1281.18652	246.50639	662.71832	1154.94031	480.68500	658.72321	1065.89917	502.77490	614.68549	1028.98169	431.82245	717.97766	891.63849	496.30536	747.11133	827.68262	470.63422	681.34161	804.39172	494.90936	785.75812	754.30951	502.88153	704.75903	1196.53650	6.25489	715.82135	1119.07971	-9.63424	662.15668	1063.80774	46.80770	800.13666	1124.24329	78.76468	824.54828	1161.46729	143.65619	834.10895	1093.66699	167.23433	902.26624	1188.80933	178.09131
3465	13.85600	618.31000	1419.99438	249.19859	665.74738	1361.96973	408.11865	680.70441	1375.59753	89.68446	749.00116	1281.19165	246.50189	662.70935	1154.91772	480.65228	658.70947	1065.88403	502.74158	614.67688	1028.97266	431.79633	717.98718	891.64581	496.30243	747.11823	827.68365	470.62787	681.34198	804.37567	494.84729	785.74969	754.29425	502.84427	704.71570	1196.52100	6.25616	715.77350	1119.02734	-9.62715	662.11737	1063.75439	46.76802	800.13257	1124.13574	78.77949	824.58899	1161.32166	143.67671	834.12482	1093.51306	167.22920	902.31500	1188.61890	178.11397
3466	13.86000	618.32104	1420.00793	249.20058	665.76288	1361.97424	408.12314	680.71710	1375.59766	89.67345	749.01074	1281.19141	246.49902	662.69727	1154.89001	480.62216	658.69904	1065.85474	502.70950	614.65839	1028.95251	431.77762	718.00006	891.64886	496.30286	747.13007	827.68164	470.62848	681.33630	804.34406	494.79034	785.73767	754.26727	502.80856	704.66852	1196.49744	6.25465	715.71729	1118.96179	-9.61607	662.07483	1063.67810	46.73500	800.12415	1124.02039	78.79772	824.20410	1161.01831	144.42020	834.14545	1093.34045	167.22871	902.28149	1188.43701	178.44942
3467	13.86400	618.32275	1420.01160	249.19876	665.76959	1361.96460	408.11993	680.72827	1375.58850	89.66040	749.02179	1281.19495	246.49568	662.69446	1154.86755	480.60510	658.69843	1065.83496	502.69205	614.63898	1028.93311	431.76352	718.01062	891.65009	496.30972	747.13538	827.67926	470.63101	681.32703	804.31525	494.76089	785.73187	754.24731	502.78766	704.61865	1196.46387	6.25708	715.65436	1118.89392	-9.60121	662.01404	1063.61389	46.72943	800.11597	1123.89490	78.82108	823.29071	1160.52100	146.05363	834.16064	1093.14893	167.22916	902.14886	1188.27173	179.15373
